HIERARCHY
ROOT Hips
{
	OFFSET -318.825958 89.265533 575.233643
	CHANNELS 6 Xposition Yposition Zposition Zrotation Yrotation Xrotation 
	JOINT Spine
	{
		OFFSET -0.000000 8.814246 -2.080107
		CHANNELS 3 Zrotation Yrotation Xrotation
		JOINT Spine1
		{
			OFFSET 0.000000 8.844141 0.000000
			CHANNELS 3 Zrotation Yrotation Xrotation
			JOINT Spine2
			{
				OFFSET -0.000000 11.682268 0.000000
				CHANNELS 3 Zrotation Yrotation Xrotation
				JOINT Spine3
				{
					OFFSET 0.000000 11.746700 0.000000
					CHANNELS 3 Zrotation Yrotation Xrotation
					JOINT Neck
					{
						OFFSET -0.000000 17.658264 -0.000000
						CHANNELS 3 Zrotation Yrotation Xrotation
						JOINT Neck1
						{
							OFFSET -0.000000 5.101515 -0.000000
							CHANNELS 3 Zrotation Yrotation Xrotation
							JOINT Head
							{
								OFFSET 0.000000 5.101515 0.000000
								CHANNELS 3 Zrotation Yrotation Xrotation
								JOINT HeadEnd
								{
									OFFSET 0.000000 11.655085 0.000000
									CHANNELS 3 Zrotation Yrotation Xrotation
									End Site
									{
										OFFSET 0.000000 0.000000 0.000000
									}
								}
							}
						}
					}
					JOINT RightShoulder
					{
						OFFSET -2.625389 11.175210 0.000000
						CHANNELS 3 Zrotation Yrotation Xrotation
						JOINT RightArm
						{
							OFFSET -0.000000 10.434715 -0.000000
							CHANNELS 3 Zrotation Yrotation Xrotation
							JOINT RightForeArm
							{
								OFFSET -0.000000 29.628420 0.000000
								CHANNELS 3 Zrotation Yrotation Xrotation
								JOINT RightHand
								{
									OFFSET -0.000000 22.857611 0.000000
									CHANNELS 3 Zrotation Yrotation Xrotation
									JOINT RightHandThumb1
									{
										OFFSET -2.867323 3.959563 2.944291
										CHANNELS 3 Zrotation Yrotation Xrotation
										JOINT RightHandThumb2
										{
											OFFSET 0.000000 3.350399 0.000000
											CHANNELS 3 Zrotation Yrotation Xrotation
											JOINT RightHandThumb3
											{
												OFFSET 0.000000 3.756509 -0.000000
												CHANNELS 3 Zrotation Yrotation Xrotation
												JOINT RightHandThumb4
												{
													OFFSET 0.000000 3.147345 0.000000
													CHANNELS 3 Zrotation Yrotation Xrotation
													End Site
													{
														OFFSET 0.000000 0.000000 0.000000
													}
												}
											}
										}
									}
									JOINT RightHandIndex1
									{
										OFFSET -0.086752 10.030893 2.345280
										CHANNELS 3 Zrotation Yrotation Xrotation
										JOINT RightHandIndex2
										{
											OFFSET -0.000000 4.061090 0.000000
											CHANNELS 3 Zrotation Yrotation Xrotation
											JOINT RightHandIndex3
											{
												OFFSET -0.000000 3.248873 0.000000
												CHANNELS 3 Zrotation Yrotation Xrotation
												JOINT RightHandIndex4
												{
													OFFSET 0.000000 2.639709 -0.000000
													CHANNELS 3 Zrotation Yrotation Xrotation
													End Site
													{
														OFFSET 0.000000 0.000000 0.000000
													}
												}
											}
										}
									}
									JOINT RightHandMiddle1
									{
										OFFSET 0.104102 9.502952 0.006768
										CHANNELS 3 Zrotation Yrotation Xrotation
										JOINT RightHandMiddle2
										{
											OFFSET 0.000000 4.568727 0.000000
											CHANNELS 3 Zrotation Yrotation Xrotation
											JOINT RightHandMiddle3
											{
												OFFSET 0.000000 3.654981 -0.000000
												CHANNELS 3 Zrotation Yrotation Xrotation
												JOINT RightHandMiddle4
												{
													OFFSET -0.000000 2.741236 -0.000000
													CHANNELS 3 Zrotation Yrotation Xrotation
													End Site
													{
														OFFSET 0.000000 0.000000 0.000000
													}
												}
											}
										}
									}
									JOINT RightHandRing1
									{
										OFFSET 0.086752 8.921708 -2.267442
										CHANNELS 3 Zrotation Yrotation Xrotation
										JOINT RightHandRing2
										{
											OFFSET -0.000000 4.061090 0.000000
											CHANNELS 3 Zrotation Yrotation Xrotation
											JOINT RightHandRing3
											{
												OFFSET 0.000000 3.654981 -0.000000
												CHANNELS 3 Zrotation Yrotation Xrotation
												JOINT RightHandRing4
												{
													OFFSET 0.000000 2.741236 -0.000000
													CHANNELS 3 Zrotation Yrotation Xrotation
													End Site
													{
														OFFSET 0.000000 0.000000 0.000000
													}
												}
											}
										}
									}
									JOINT RightHandPinky1
									{
										OFFSET -0.173504 7.976997 -4.467199
										CHANNELS 3 Zrotation Yrotation Xrotation
										JOINT RightHandPinky2
										{
											OFFSET 0.000000 3.350399 -0.000000
											CHANNELS 3 Zrotation Yrotation Xrotation
											JOINT RightHandPinky3
											{
												OFFSET -0.000000 2.842763 0.000000
												CHANNELS 3 Zrotation Yrotation Xrotation
												JOINT RightHandPinky4
												{
													OFFSET -0.000000 2.639709 0.000000
													CHANNELS 3 Zrotation Yrotation Xrotation
													End Site
													{
														OFFSET 0.000000 0.000000 0.000000
													}
												}
											}
										}
									}
									JOINT RightForeArmEnd
									{
										OFFSET 0.000000 0.000000 0.000000
										CHANNELS 3 Zrotation Yrotation Xrotation
										End Site
										{
											OFFSET 0.000000 0.000000 0.000000
										}
									}
								}
								JOINT RightArmEnd
								{
									OFFSET 0.000000 0.000000 0.000000
									CHANNELS 3 Zrotation Yrotation Xrotation
									End Site
									{
										OFFSET 0.000000 0.000000 0.000000
									}
								}
							}
						}
					}
					JOINT LeftShoulder
					{
						OFFSET 2.625389 11.175210 0.000000
						CHANNELS 3 Zrotation Yrotation Xrotation
						JOINT LeftArm
						{
							OFFSET 0.000000 10.813635 -0.000000
							CHANNELS 3 Zrotation Yrotation Xrotation
							JOINT LeftForeArm
							{
								OFFSET 0.000000 28.724781 0.000000
								CHANNELS 3 Zrotation Yrotation Xrotation
								JOINT LeftHand
								{
									OFFSET 0.644384 25.716167 -0.328871
									CHANNELS 3 Zrotation Yrotation Xrotation
									JOINT LeftHandThumb1
									{
										OFFSET 2.867323 3.959563 2.944291
										CHANNELS 3 Zrotation Yrotation Xrotation
										JOINT LeftHandThumb2
										{
											OFFSET 0.000000 3.350399 0.000000
											CHANNELS 3 Zrotation Yrotation Xrotation
											JOINT LeftHandThumb3
											{
												OFFSET -0.000000 3.756509 0.000000
												CHANNELS 3 Zrotation Yrotation Xrotation
												JOINT LeftHandThumb4
												{
													OFFSET -0.000000 3.100000 0.000000
													CHANNELS 3 Zrotation Yrotation Xrotation
													End Site
													{
														OFFSET 0.000000 0.000000 0.000000
													}
												}
											}
										}
									}
									JOINT LeftHandIndex1
									{
										OFFSET 0.086752 10.030893 2.345280
										CHANNELS 3 Zrotation Yrotation Xrotation
										JOINT LeftHandIndex2
										{
											OFFSET -0.000000 4.061090 -0.000000
											CHANNELS 3 Zrotation Yrotation Xrotation
											JOINT LeftHandIndex3
											{
												OFFSET 0.000000 3.248873 -0.000000
												CHANNELS 3 Zrotation Yrotation Xrotation
												JOINT LeftHandIndex4
												{
													OFFSET 0.000000 2.639709 -0.000000
													CHANNELS 3 Zrotation Yrotation Xrotation
													End Site
													{
														OFFSET 0.000000 0.000000 0.000000
													}
												}
											}
										}
									}
									JOINT LeftHandMiddle1
									{
										OFFSET -0.104102 9.502952 0.006768
										CHANNELS 3 Zrotation Yrotation Xrotation
										JOINT LeftHandMiddle2
										{
											OFFSET -0.000000 4.568727 -0.000000
											CHANNELS 3 Zrotation Yrotation Xrotation
											JOINT LeftHandMiddle3
											{
												OFFSET 0.000000 3.654981 0.000000
												CHANNELS 3 Zrotation Yrotation Xrotation
												JOINT LeftHandMiddle4
												{
													OFFSET 0.000000 2.741236 -0.000000
													CHANNELS 3 Zrotation Yrotation Xrotation
													End Site
													{
														OFFSET 0.000000 0.000000 0.000000
													}
												}
											}
										}
									}
									JOINT LeftHandRing1
									{
										OFFSET -0.086752 8.921708 -2.267442
										CHANNELS 3 Zrotation Yrotation Xrotation
										JOINT LeftHandRing2
										{
											OFFSET 0.000000 4.061090 0.000000
											CHANNELS 3 Zrotation Yrotation Xrotation
											JOINT LeftHandRing3
											{
												OFFSET 0.000000 3.654981 0.000000
												CHANNELS 3 Zrotation Yrotation Xrotation
												JOINT LeftHandRing4
												{
													OFFSET 0.000000 2.741236 0.000000
													CHANNELS 3 Zrotation Yrotation Xrotation
													End Site
													{
														OFFSET 0.000000 0.000000 0.000000
													}
												}
											}
										}
									}
									JOINT LeftHandPinky1
									{
										OFFSET 0.173504 7.976997 -4.467199
										CHANNELS 3 Zrotation Yrotation Xrotation
										JOINT LeftHandPinky2
										{
											OFFSET -0.000000 3.350399 -0.000000
											CHANNELS 3 Zrotation Yrotation Xrotation
											JOINT LeftHandPinky3
											{
												OFFSET 0.000000 2.842763 0.000000
												CHANNELS 3 Zrotation Yrotation Xrotation
												JOINT LeftHandPinky4
												{
													OFFSET -0.000000 2.639709 -0.000000
													CHANNELS 3 Zrotation Yrotation Xrotation
													End Site
													{
														OFFSET 0.000000 0.000000 0.000000
													}
												}
											}
										}
									}
									JOINT LeftForeArmEnd
									{
										OFFSET 0.000000 0.000000 0.000000
										CHANNELS 3 Zrotation Yrotation Xrotation
										End Site
										{
											OFFSET 0.000000 0.000000 0.000000
										}
									}
								}
								JOINT LeftArmEnd
								{
									OFFSET 0.000000 0.000000 0.000000
									CHANNELS 3 Zrotation Yrotation Xrotation
									End Site
									{
										OFFSET 0.000000 0.000000 0.000000
									}
								}
							}
						}
					}
				}
			}
		}
	}
	JOINT RightUpLeg
	{
		OFFSET -11.289943 0.000000 0.000000
		CHANNELS 3 Zrotation Yrotation Xrotation
		JOINT RightLeg
		{
			OFFSET 0.000000 -38.200325 0.000000
			CHANNELS 3 Zrotation Yrotation Xrotation
			JOINT RightFoot
			{
				OFFSET -0.000000 -39.900856 -0.000000
				CHANNELS 3 Zrotation Yrotation Xrotation
				JOINT RightToeBase
				{
					OFFSET 0.000000 0.000000 15.261641
					CHANNELS 3 Zrotation Yrotation Xrotation
					JOINT RightToeBaseEnd
					{
						OFFSET 0.000000 0.000000 7.370709
						CHANNELS 3 Zrotation Yrotation Xrotation
						End Site
						{
							OFFSET 0.000000 0.000000 0.000000
						}
					}
				}
				JOINT RightLegEnd
				{
					OFFSET 0.000000 0.000000 0.000000
					CHANNELS 3 Zrotation Yrotation Xrotation
					End Site
					{
						OFFSET 0.000000 0.000000 0.000000
					}
				}
			}
			JOINT RightUpLegEnd
			{
				OFFSET 0.000000 0.000000 0.000000
				CHANNELS 3 Zrotation Yrotation Xrotation
				End Site
				{
					OFFSET 0.000000 0.000000 0.000000
				}
			}
		}
	}
	JOINT LeftUpLeg
	{
		OFFSET 11.315661 -0.000000 0.000000
		CHANNELS 3 Zrotation Yrotation Xrotation
		JOINT LeftLeg
		{
			OFFSET -0.000000 -38.200325 -0.000000
			CHANNELS 3 Zrotation Yrotation Xrotation
			JOINT LeftFoot
			{
				OFFSET 0.000000 -39.900856 -0.000000
				CHANNELS 3 Zrotation Yrotation Xrotation
				JOINT LeftToeBase
				{
					OFFSET -0.000000 -0.000000 15.261641
					CHANNELS 3 Zrotation Yrotation Xrotation
					JOINT LeftToeBaseEnd
					{
						OFFSET 0.000000 -0.000000 7.539996
						CHANNELS 3 Zrotation Yrotation Xrotation
						End Site
						{
							OFFSET 0.000000 0.000000 0.000000
						}
					}
				}
				JOINT LeftLegEnd
				{
					OFFSET 0.000000 0.000000 0.000000
					CHANNELS 3 Zrotation Yrotation Xrotation
					End Site
					{
						OFFSET 0.000000 0.000000 0.000000
					}
				}
			}
			JOINT LeftUpLegEnd
			{
				OFFSET 0.000000 0.000000 0.000000
				CHANNELS 3 Zrotation Yrotation Xrotation
				End Site
				{
					OFFSET 0.000000 0.000000 0.000000
				}
			}
		}
	}
}
MOTION
Frames: 4
Frame Time: 0.016667
0.641722 88.534889 -0.562068 0.452021 -0.149659 -10.832649 0.153983 0.157027 6.891133 -0.891440 0.164774 0.234890 0.444243 -1.475817 6.291885 0.337007 -0.258989 2.635973 7.471078 -1.987523 5.536678 0.926533 0.409530 -2.887462 0.572285 -0.574109 -17.019764 0.000000 -0.000000 0.000000 96.969559 -1.466996 12.062257 57.057346 -40.387573 9.509075 -0.020924 11.677968 22.168652 8.976395 14.792023 -4.711746 20.055483 30.046745 61.865429 -8.636676 -12.540174 -21.000843 -6.472674 -8.387120 -14.722486 0.000000 -0.000000 -0.000000 14.283799 -10.990596 -0.017608 10.044960 0.361389 1.491840 10.044939 -0.130572 1.404632 -0.000000 0.000000 -0.000000 13.139854 -5.787306 -0.750532 9.289960 0.444580 0.569474 9.289554 -0.057582 0.488856 -0.000000 0.000000 0.000000 14.143627 2.034128 0.294387 10.013123 -0.911720 -0.782715 10.011596 0.067422 -0.612795 0.000000 -0.000000 0.000000 14.380892 10.484774 -0.200966 10.062198 -1.791636 -2.294085 10.057229 0.181059 -1.944799 0.000000 -0.000000 -0.000000 -0.000000 -0.000000 -0.000000 -0.000000 0.000000 -0.000000 -92.966057 0.401555 7.377905 -63.684689 27.041664 1.028344 -0.661419 -3.803646 39.502075 -2.772583 -27.180885 -13.775970 -19.667751 -30.149382 62.216824 8.285617 11.788947 -19.895178 6.177176 7.893797 -13.945233 0.000000 -0.000000 0.000000 -11.463059 -6.449910 -1.566969 -8.227844 0.399548 -1.223993 -8.227639 -0.092338 -1.152434 -0.000000 0.000000 -0.000000 -10.913764 -1.565430 -1.941026 -7.828206 0.459118 -0.477072 -7.827946 -0.036808 -0.408978 -0.000000 -0.000000 -0.000000 -13.129621 6.770292 -1.605740 -9.221900 -0.940470 0.721783 -9.220648 0.044221 0.561534 -0.000000 -0.000000 -0.000000 -14.385422 15.451692 -1.381814 -9.817341 -1.809772 2.239326 -9.812284 0.161283 1.898373 0.000000 -0.000000 -0.000000 0.000000 0.000000 -0.000000 -0.000000 -0.000000 -0.000000 -2.161557 -10.285037 15.439672 -0.047192 -0.649294 4.854118 -1.795250 -7.841969 16.951359 -1.089284 0.776689 -18.221502 -0.000000 -0.000000 0.000000 -0.000000 0.000000 -0.000000 0.000000 -0.000000 0.000000 -2.577437 -6.053984 11.041781 0.062082 0.338638 8.560495 4.143339 -1.687131 16.495682 0.062535 -0.480979 -20.051476 -0.000000 -0.000000 0.000000 0.000000 0.000000 -0.000000 0.000000 0.000000 0.000000 
0.629570 88.527000 -0.543948 0.456220 -0.114445 -10.908947 0.171811 0.156870 6.907262 -0.862665 0.162501 0.202974 0.384004 -1.401006 6.403554 0.290908 -0.234448 2.698135 7.322662 -1.985390 5.637333 0.897162 0.357862 -2.862220 0.561392 -0.579009 -17.038145 0.000000 -0.000000 -0.000000 96.936852 -1.461742 12.077185 57.068760 -40.213730 9.505698 -0.020451 11.527020 22.168037 9.101959 14.700989 -4.683289 20.055489 30.046749 61.865429 -8.636679 -12.540177 -21.000839 -6.472672 -8.387119 -14.722490 0.000000 -0.000000 -0.000000 14.452817 -11.019645 -0.008408 10.164829 0.361489 1.509440 10.164430 -0.130464 1.421194 -0.000000 0.000000 0.000000 13.276428 -5.810480 -0.769103 9.385655 0.444623 0.571384 9.385392 -0.058097 0.490386 -0.000000 0.000000 0.000000 14.193053 2.027526 0.231874 10.051703 -0.911331 -0.783597 10.050242 0.067662 -0.613988 0.000000 -0.000000 0.000000 14.330439 10.488193 -0.298111 10.042199 -1.791526 -2.291134 10.037421 0.180566 -1.942304 0.000000 -0.000000 -0.000000 0.000000 -0.000000 -0.000000 0.000000 0.000000 -0.000000 -93.032059 0.408610 7.347967 -63.633850 27.093107 1.026139 -0.649322 -3.766213 39.609005 -2.533234 -27.163887 -14.047363 -19.667746 -30.149378 62.216824 8.285618 11.788954 -19.895185 6.177177 7.893796 -13.945227 0.000000 -0.000000 -0.000000 -11.921549 -6.371671 -1.537913 -8.548310 0.399532 -1.271170 -8.546265 -0.092349 -1.196723 0.000000 0.000000 -0.000000 -11.330583 -1.493941 -1.899596 -8.121943 0.458697 -0.494849 -8.121671 -0.037304 -0.424221 -0.000000 -0.000000 -0.000000 -13.464199 6.828019 -1.582023 -9.460144 -0.940880 0.740275 -9.459034 0.044138 0.575920 -0.000000 -0.000000 -0.000000 -14.630005 15.492126 -1.411394 -9.982879 -1.807606 2.276734 -9.977951 0.163138 1.930099 0.000000 -0.000000 -0.000000 0.000000 0.000000 -0.000000 -0.000000 -0.000000 -0.000000 -2.178164 -10.306321 15.544534 -0.047248 -0.648647 4.843298 -1.796862 -7.852722 16.911795 -1.089724 0.776840 -18.195538 -0.000000 -0.000000 0.000000 -0.000000 -0.000000 0.000000 0.000000 0.000000 0.000000 -2.579316 -6.056528 11.096951 0.062083 0.339358 8.622992 4.137738 -1.711859 16.441666 0.062217 -0.482969 -20.035931 -0.000000 0.000000 0.000000 0.000000 -0.000000 -0.000000 0.000000 0.000000 0.000000 
0.617095 88.518921 -0.529303 0.460965 -0.073116 -10.995122 0.187925 0.157082 6.924075 -0.828155 0.159803 0.180503 0.317500 -1.325307 6.528290 0.236090 -0.212034 2.773422 7.170549 -1.982636 5.719622 0.872214 0.319849 -2.850416 0.554871 -0.579737 -17.075106 0.000000 -0.000000 0.000000 96.905800 -1.458059 12.101794 57.070793 -39.960827 9.523842 -0.019285 11.290295 22.167398 9.249908 14.530624 -4.659012 20.055500 30.046751 61.865425 -8.636679 -12.540180 -21.000830 -6.472673 -8.387123 -14.722498 0.000000 -0.000000 0.000000 14.481183 -11.026085 0.055472 10.191366 0.361453 1.513338 10.191002 -0.130485 1.424872 -0.000000 0.000000 -0.000000 13.306527 -5.816157 -0.721639 9.409018 0.444622 0.574085 9.408709 -0.058581 0.492303 0.000000 0.000000 0.000000 14.211036 2.024618 0.245807 10.063496 -0.910978 -0.787011 10.062153 0.067850 -0.615848 0.000000 -0.000000 0.000000 14.327339 10.489162 -0.317135 10.043066 -1.791366 -2.290338 10.038231 0.180126 -1.941625 0.000000 -0.000000 -0.000000 -0.000000 -0.000000 0.000000 -0.000000 -0.000000 0.000000 -93.091095 0.415184 7.326960 -63.544048 27.176308 1.057416 -0.650511 -3.761718 39.654301 -2.679962 -26.830925 -14.133087 -19.667744 -30.149376 62.216824 8.285619 11.788956 -19.895191 6.177178 7.893795 -13.945223 0.000000 -0.000000 0.000000 -12.146688 -6.335128 -1.463336 -8.698875 0.399501 -1.293402 -8.697011 -0.092460 -1.218156 -0.000000 0.000000 -0.000000 -11.508529 -1.464611 -1.790460 -8.243381 0.458238 -0.500999 -8.243124 -0.037830 -0.429476 -0.000000 -0.000000 -0.000000 -13.505328 6.835454 -1.447538 -9.496820 -0.941263 0.742387 -9.495549 0.044154 0.577563 -0.000000 -0.000000 -0.000000 -14.511333 15.478578 -1.257210 -9.924408 -1.806608 2.263544 -9.919582 0.164000 1.918899 -0.000000 -0.000000 -0.000000 0.000000 0.000000 -0.000000 0.000000 0.000000 0.000000 -2.198564 -10.335557 15.655359 -0.047304 -0.647958 4.842920 -1.798339 -7.861282 16.868603 -1.089951 0.777035 -18.166658 -0.000000 0.000000 0.000000 -0.000000 -0.000000 -0.000000 0.000000 0.000000 0.000000 -2.583397 -6.055441 11.154679 0.062085 0.340042 8.692907 4.136279 -1.748314 16.386341 0.061862 -0.484863 -20.019791 -0.000000 0.000000 -0.000000 0.000000 0.000000 -0.000000 0.000000 -0.000000 0.000000 
0.603954 88.511902 -0.515412 0.466581 -0.025588 -11.099898 0.204440 0.158030 6.930411 -0.788392 0.156849 0.176337 0.244997 -1.243949 6.677484 0.169149 -0.189160 2.871163 7.015059 -1.978181 5.775641 0.856283 0.291025 -2.845935 0.563981 -0.579592 -17.136473 0.000000 0.000000 0.000000 96.894852 -1.459062 12.128970 57.011375 -39.723190 9.588633 -0.017699 11.064719 22.172558 9.370529 14.471878 -4.615479 20.055536 30.046755 61.865421 -8.636677 -12.540184 -21.000803 -6.472685 -8.387143 -14.722523 0.000000 -0.000000 0.000000 14.630657 -11.052317 0.086371 10.299460 0.361261 1.529232 10.299248 -0.130653 1.439835 -0.000000 0.000000 0.000000 13.459355 -5.842810 -0.679703 9.519140 0.444584 0.580060 9.518836 -0.059034 0.496576 -0.000000 0.000000 0.000000 14.381117 1.996129 0.285409 10.181696 -0.910662 -0.796162 10.180381 0.067986 -0.620372 0.000000 -0.000000 0.000000 14.500614 10.460503 -0.295407 10.160379 -1.791165 -2.316806 10.155335 0.179755 -1.964065 0.000000 -0.000000 -0.000000 -0.000000 -0.000000 0.000000 -0.000000 -0.000000 -0.000000 -93.131477 0.420698 7.330891 -63.396252 27.310568 1.147600 -0.668361 -3.801824 39.622555 -3.115326 -26.346050 -14.040344 -19.667742 -30.149370 62.216820 8.285618 11.788953 -19.895191 6.177176 7.893791 -13.945220 0.000000 -0.000000 -0.000000 -12.205653 -6.327205 -1.389690 -8.731445 0.399484 -1.298682 -8.731016 -0.093183 -1.222711 -0.000000 0.000000 -0.000000 -11.537067 -1.459952 -1.703480 -8.259561 0.457750 -0.504137 -8.259467 -0.038379 -0.432117 -0.000000 -0.000000 -0.000000 -13.442413 6.840680 -1.381392 -9.455853 -0.941618 0.743390 -9.454739 0.044261 0.578343 0.000000 -0.000000 -0.000000 -14.359879 15.454128 -1.224612 -9.824003 -1.806589 2.240859 -9.819276 0.164024 1.899678 0.000000 -0.000000 -0.000000 0.000000 0.000000 -0.000000 -0.000000 0.000000 -0.000000 -2.225534 -10.374487 15.780522 -0.047360 -0.647220 4.843524 -1.798061 -7.867194 16.825722 -1.089953 0.777273 -18.140833 -0.000000 0.000000 0.000000 -0.000000 -0.000000 -0.000000 0.000000 0.000000 0.000000 -2.588457 -6.057941 11.229998 0.062086 0.340732 8.761928 4.135215 -1.787500 16.337029 0.061491 -0.486600 -20.007380 -0.000000 0.000000 -0.000000 0.000000 -0.000000 -0.000000 0.000000 0.000000 0.000000 
